<?xml version="1.0" standalone="no"?>
<!DOCTYPE svg PUBLIC "-//W3C//DTD SVG 20010904//EN"
 "http://www.w3.org/TR/2001/REC-SVG-20010904/DTD/svg10.dtd">
<svg version="1.0" xmlns="http://www.w3.org/2000/svg"
 width="256.000000pt" height="256.000000pt" viewBox="0 0 256.000000 256.000000"
 preserveAspectRatio="xMidYMid meet">
<metadata>
Created by potrace 1.11, written by Peter Selinger 2001-2013
</metadata>
<g transform="translate(0.000000,256.000000) scale(0.100000,-0.100000)"
fill="#000000" stroke="none">
<path d="M360 2232 c0 -7 -3 -11 -7 -9 -10 6 -34 -19 -26 -27 4 -3 2 -6 -3 -6
-11 0 -11 -40 -1 -57 4 -7 4 -14 0 -16 -9 -6 -9 -88 -1 -103 3 -5 2 -18 -2
-29 -4 -11 -4 -32 1 -47 4 -15 4 -30 0 -32 -8 -6 -7 -48 2 -63 4 -7 4 -14 -1
-17 -9 -5 -9 -47 1 -63 4 -7 4 -14 -1 -17 -9 -5 -9 -47 1 -63 4 -7 4 -14 0
-16 -9 -6 -9 -119 0 -133 3 -6 2 -16 -3 -24 -5 -9 -5 -19 2 -27 6 -7 7 -13 2
-13 -4 0 1 -7 12 -15 19 -15 19 -15 -1 -10 -11 3 -5 -2 13 -10 43 -20 74 -25
90 -13 6 6 12 7 12 2 0 -11 130 -11 148 -1 6 5 12 5 12 0 0 -4 16 -8 35 -8 19
0 35 3 35 7 0 4 10 4 23 0 26 -10 38 -9 55 1 6 5 12 4 12 -1 0 -5 10 -8 23 -8
24 1 24 0 14 -91 -3 -24 -1 -40 4 -37 5 3 9 0 9 -5 0 -6 -5 -11 -11 -11 -8 0
-7 -6 2 -17 9 -10 9 -14 2 -10 -8 5 -7 -1 2 -20 8 -15 11 -29 5 -31 -5 -2 -7
-9 -4 -15 5 -14 -53 -16 -75 -3 -9 6 -12 5 -7 -2 4 -7 -7 -9 -34 -7 -22 2 -40
-1 -40 -7 0 -5 -7 -2 -16 6 -17 17 -29 21 -20 7 3 -4 -24 -7 -59 -6 -36 1 -65
-2 -65 -7 0 -5 -7 -2 -16 6 -17 18 -28 21 -19 6 3 -5 -9 -8 -30 -6 -43 5 -85
-5 -83 -19 0 -5 -8 -14 -18 -20 -19 -10 -25 -49 -10 -73 4 -6 3 -12 -1 -12
-10 0 -9 -53 2 -69 3 -6 3 -16 -1 -23 -10 -17 -11 -58 -2 -64 5 -3 5 -11 1
-17 -9 -15 -9 -49 0 -64 4 -6 4 -14 -1 -17 -9 -5 -9 -47 1 -63 4 -7 4 -14 0
-16 -10 -6 -9 -159 0 -175 4 -6 4 -13 0 -15 -5 -3 -7 -27 -6 -54 2 -66 2 -65
13 -58 6 3 7 -1 4 -10 -7 -17 14 -48 27 -39 5 3 9 1 9 -5 0 -7 86 -10 254 -10
140 1 259 -2 265 -6 6 -3 11 -3 11 2 0 4 47 7 104 6 85 -2 105 1 110 13 3 8
11 12 17 9 6 -4 10 -1 8 6 -3 25 1 40 9 35 10 -6 9 30 -1 40 -12 12 -8 26 6
18 8 -5 8 -2 -2 9 -11 14 -11 17 0 17 10 0 10 3 1 12 -15 15 -16 32 -1 22 8
-4 8 0 0 15 -7 11 -8 21 -3 21 5 0 9 7 9 15 0 8 -4 12 -9 9 -12 -8 -10 10 3
23 8 8 8 13 0 17 -6 4 -11 12 -11 17 0 6 6 7 13 3 8 -5 8 -2 -2 9 -9 12 -10
17 -2 17 7 0 9 5 5 12 -10 15 -8 93 2 109 4 7 3 9 -3 6 -6 -4 -13 0 -16 8 -4
9 -1 12 8 9 10 -4 12 0 8 17 -4 15 -3 20 5 15 7 -4 12 -2 12 5 0 8 4 8 13 1 7
-6 56 -10 118 -9 89 2 106 4 102 17 -4 13 -3 13 5 0 11 -18 10 -70 -2 -89 -6
-10 -5 -12 2 -7 8 5 12 -1 12 -14 0 -13 -4 -19 -11 -14 -8 4 -8 1 -2 -12 11
-23 11 -54 -1 -73 -6 -9 -5 -12 1 -8 7 4 10 -14 9 -52 0 -37 -5 -57 -11 -54
-5 3 -4 0 3 -8 6 -7 12 -17 12 -22 0 -4 -6 -5 -12 -1 -10 6 -10 4 -2 -7 6 -8
10 -30 9 -49 -1 -19 2 -46 8 -60 6 -14 9 -29 8 -33 -1 -5 3 -6 9 -2 5 3 10 2
10 -3 0 -6 150 -10 374 -11 365 -1 375 -1 389 19 7 11 16 19 18 17 2 -1 3 0 2
2 -2 2 2 10 8 18 6 7 8 13 3 13 -10 0 -11 91 -1 107 4 7 4 14 0 16 -9 6 -8
159 0 182 4 8 3 16 -1 19 -9 5 -8 89 1 103 4 7 4 14 -1 17 -9 6 -8 59 3 75 3
6 3 11 -2 11 -4 0 -8 20 -8 45 0 25 4 45 8 45 4 0 4 8 0 18 -5 9 -8 29 -7 44
2 48 -65 95 -88 63 -5 -7 -8 -6 -8 1 0 6 -24 10 -60 10 -33 0 -60 -5 -60 -10
0 -5 -7 -1 -16 10 -8 10 -13 14 -10 8 6 -13 -72 -13 -93 0 -9 6 -12 5 -8 -1 8
-13 -66 -12 -75 2 -5 6 -8 6 -8 -2 0 -12 -30 -10 -52 3 -6 4 -8 3 -4 -4 4 -6
-1 -10 -12 -9 -15 1 -19 9 -18 39 1 21 3 38 6 38 8 0 5 75 -5 89 -6 10 -4 12
5 6 10 -6 12 -4 6 11 -5 10 -9 31 -11 47 l-3 27 194 -3 c119 -2 198 1 204 7 7
7 10 6 10 -1 0 -6 8 -10 18 -8 9 2 17 4 17 5 0 1 9 3 19 5 20 4 74 55 58 55
-10 0 -8 73 3 89 3 6 3 11 -2 11 -10 0 -9 82 0 97 4 7 4 14 0 16 -10 6 -9 89
0 104 4 7 4 14 0 16 -7 4 -9 152 -3 182 1 6 1 12 0 15 -6 15 -4 100 3 100 4 0
4 8 -1 18 -4 9 -7 27 -6 40 0 12 -3 22 -8 22 -6 0 -8 6 -5 13 3 7 -4 19 -15
26 -16 10 -19 10 -12 -1 6 -11 5 -11 -8 0 -19 15 -87 22 -94 10 -3 -5 -10 -5
-17 -1 -16 10 -58 10 -63 1 -3 -5 -10 -5 -17 -1 -15 9 -57 10 -63 2 -2 -4 -17
-4 -32 0 -15 5 -37 5 -49 0 -12 -4 -24 -5 -27 -1 -5 9 -89 8 -103 -1 -7 -4
-14 -4 -17 1 -6 9 -59 8 -75 -3 -6 -3 -11 -2 -11 2 0 10 -53 9 -69 -2 -6 -3
-11 -2 -11 3 0 4 -17 7 -37 4 -21 -2 -43 -4 -50 -4 -7 -1 -10 -5 -7 -10 3 -4
-1 -8 -8 -8 -8 0 -14 -10 -15 -22 -1 -11 -7 -24 -14 -28 -8 -6 -8 -13 -1 -26
8 -14 6 -21 -6 -32 -10 -7 -12 -11 -6 -8 7 3 14 -1 18 -9 3 -8 1 -15 -4 -15
-6 0 -10 -5 -10 -11 0 -5 4 -7 10 -4 6 4 7 -2 1 -17 -4 -12 -5 -37 -1 -55 5
-18 4 -31 0 -28 -10 6 -7 -36 4 -54 5 -7 1 -20 -9 -31 -12 -14 -13 -20 -4 -26
8 -5 10 -3 4 7 -6 11 -5 12 6 1 10 -10 11 -17 2 -31 -9 -14 -9 -22 0 -31 10
-10 8 -12 -6 -7 -16 6 -16 5 0 -20 10 -15 12 -24 6 -20 -7 5 -13 4 -13 -2 0
-7 -9 -7 -27 0 -16 6 -29 10 -30 10 -2 -1 -4 -1 -5 0 -6 1 -103 1 -108 -1 -3
-1 -14 -3 -25 -5 -11 -2 -29 -5 -40 -8 -21 -5 -21 -2 -20 199 0 130 -4 204
-10 204 -5 0 -4 4 3 9 12 7 12 12 0 32 -24 42 -36 50 -88 53 -14 1 -30 -2 -37
-7 -6 -4 -14 -3 -18 3 -4 7 -12 7 -24 0 -10 -5 -21 -7 -24 -4 -9 10 -98 11
-103 2 -3 -5 -10 -5 -17 -1 -15 9 -98 10 -104 0 -2 -4 -9 -4 -16 0 -15 9 -98
10 -104 0 -2 -4 -9 -4 -16 0 -15 9 -98 10 -104 0 -2 -4 -9 -4 -16 0 -21 13
-107 9 -107 -5z"/>
</g>
</svg>
